<svg xmlns="http://www.w3.org/2000/svg" viewBox="0 0 26.33 26.33"><defs><style>.cls-1{fill:#fff;}</style></defs><g id="Layer_2" data-name="Layer 2"><g id="Colour_Picker" data-name="Colour Picker"><g id="EDIT_PALETTE" data-name="EDIT PALETTE"><path class="cls-1" d="M23.4,14.63v7.31a1.46,1.46,0,0,1-1.46,1.46H4.39a1.46,1.46,0,0,1-1.46-1.46V14.63a1.47,1.47,0,1,0-2.93,0V23.4a2.94,2.94,0,0,0,2.93,2.93H23.4a2.94,2.94,0,0,0,2.93-2.93V14.63a1.47,1.47,0,1,0-2.93,0Zm-8.77-.48,2.75-2.75a1.44,1.44,0,0,1,2.06,0,1.45,1.45,0,0,1,0,2.06l-5.25,5.25a1.45,1.45,0,0,1-2.06,0L6.88,13.46A1.46,1.46,0,1,1,8.94,11.4l2.76,2.75V1.46a1.47,1.47,0,0,1,2.93,0Z"/></g></g></g></svg>