<svg xmlns="http://www.w3.org/2000/svg" viewBox="0 0 102.79 104.74"><defs><style>.cls-1{fill:#84aea3;}</style></defs><g id="Layer_2" data-name="Layer 2"><g id="CONNECTED"><g id="Logomark"><path class="cls-1" d="M35,3.57l50,10.08,16.44,48.81L67.83,101.18l-50-10.07L1.42,42.3ZM34.49,2.2,0,42,16.9,92.2l51.4,10.36,34.49-39.82L85.89,12.56Z"/><path class="cls-1" d="M61.48,1.43l38.73,34.26-10,51L41.55,103.31,2.82,69.05l10-50.95ZM61.77,0,11.7,17.14,1.45,69.51l39.81,35.23L91.33,87.6l10.25-52.37Z"/><path class="cls-1" d="M40.37,20.17l33.18,6.69L84.47,59.31,62.19,85.05,29,78.36,18.09,45.91Zm-.47-1.38L16.67,45.63,28.05,79.45l34.61,7L85.89,59.59,74.51,25.77Z"/><path class="cls-1" d="M59,13.31,88.88,39.74,81.19,79,43.68,91.9,13.84,65.47l7.68-39.3Zm.29-1.43L20.43,25.21l-8,40.72,30.93,27.4L82.29,80l8-40.72Z"/></g></g></g></svg>